<svg width="38" height="38" viewBox="0 0 38 38" fill="none" xmlns="http://www.w3.org/2000/svg">
<rect width="38" height="38" rx="19" fill="#0328EE"/>
<g clip-path="url(#clip0_1_27767)">
<path opacity="0.4" d="M29.207 23.6255C29.207 26.5631 26.8323 28.9427 23.8744 28.9532H23.8638H13.3577C10.4105 28.9532 8.00391 26.5841 8.00391 23.6465V23.636C8.00391 23.636 8.01027 18.9757 8.01875 16.6319C8.01981 16.1918 8.52868 15.9454 8.87535 16.2191C11.3943 18.2039 15.8989 21.8228 15.9551 21.8702C16.7078 22.4693 17.6619 22.8073 18.6373 22.8073C19.6126 22.8073 20.5668 22.4693 21.3195 21.8586C21.3756 21.8218 25.7795 18.3113 28.3366 16.2939C28.6844 16.0191 29.1954 16.2655 29.1964 16.7045C29.207 19.0305 29.207 23.6255 29.207 23.6255Z" fill="white"/>
<path d="M28.6514 12.8155C27.7333 11.0971 25.9267 10 23.9379 10H13.3576C11.3687 10 9.56223 11.0971 8.64414 12.8155C8.43847 13.1998 8.536 13.6789 8.87843 13.9506L16.7501 20.204C17.3014 20.6462 17.9692 20.8662 18.6372 20.8662C18.6414 20.8662 18.6445 20.8662 18.6478 20.8662C18.6509 20.8662 18.6552 20.8662 18.6583 20.8662C19.3263 20.8662 19.9942 20.6462 20.5454 20.204L28.417 13.9506C28.7595 13.6789 28.857 13.1998 28.6514 12.8155Z" fill="white"/>
</g>
<defs>
<clipPath id="clip0_1_27767">
<rect width="22" height="19" fill="white" transform="translate(8.00391 10)"/>
</clipPath>
</defs>
</svg>
