<svg width="46" height="46" viewBox="0 0 46 46" fill="none" xmlns="http://www.w3.org/2000/svg">
<rect width="46" height="46" rx="23" fill="white"/>
<g clip-path="url(#clip0_1_27447)">
<path d="M34.4979 19.7778C34.9873 16.4379 32.4932 14.6423 29.0824 13.4446L30.1901 8.92055L27.4883 8.23435L26.4091 12.6394C25.6996 12.4592 24.9705 12.2881 24.2459 12.1204L25.3289 7.6862L22.6298 7L21.5253 11.5223L16.0773 10.1464L15.3585 13.0882C15.3585 13.0882 17.3627 13.5565 17.3204 13.5857C18.4143 13.8643 18.6127 14.6021 18.5792 15.1875L15.548 27.5812C15.4141 27.92 15.0749 28.428 14.3103 28.2338C14.3374 28.2739 12.3469 27.7318 12.3469 27.7318L11.0059 30.8889L16.446 32.2895L15.3279 36.8662L18.0259 37.5524L19.1336 33.0248C19.8721 33.2286 20.5859 33.4169 21.2856 33.5941L20.1822 38.1006L22.8836 38.7868L24.0017 34.2188C28.6081 35.1073 32.072 34.7489 33.5281 30.5042C34.7027 27.0845 33.4705 25.1118 31.0468 23.8247C32.8118 23.408 34.141 22.2249 34.4957 19.7795L34.4979 19.7778ZM28.3243 28.6022C27.4873 32.0219 21.8416 30.1739 20.0097 29.7096L21.4931 23.647C23.324 24.1128 29.1952 25.0355 28.3252 28.6017L28.3243 28.6022ZM29.1622 19.7293C28.4006 22.8416 23.6996 21.2603 22.1739 20.8723L23.5169 15.3722C25.0432 15.7607 29.9543 16.484 29.1602 19.7291" fill="#010725"/>
</g>
<defs>
<clipPath id="clip0_1_27447">
<rect width="24" height="32" fill="white" transform="translate(11.0059 7)"/>
</clipPath>
</defs>
</svg>
