<svg width="46" height="46" viewBox="0 0 46 46" fill="none" xmlns="http://www.w3.org/2000/svg">
<rect width="46" height="46" rx="23" fill="white"/>
<g clip-path="url(#clip0_1_27488)">
<path d="M31.4364 30.7432H21.232L23.1398 24.31L26.068 23.4671L26.6892 21.3375L23.7609 22.2248L26.8666 11.6655V11.5324C26.8666 11.2218 26.6448 11 26.3342 11H22.3856C22.075 11 21.8088 11.2218 21.7201 11.5324L18.082 23.9995L15.1538 24.8868L14.4883 26.972L17.4165 26.0847L14.7988 35.0024H30.3716C30.6822 35.0024 30.9484 34.7806 31.0371 34.5144L31.9244 31.4531V31.32C31.9688 30.965 31.747 30.7432 31.4364 30.7432Z" fill="#010725"/>
</g>
<defs>
<clipPath id="clip0_1_27488">
<rect width="18" height="25" fill="white" transform="translate(14 11)"/>
</clipPath>
</defs>
</svg>
