<svg width="46" height="46" viewBox="0 0 46 46" fill="none" xmlns="http://www.w3.org/2000/svg">
<rect width="46" height="46" rx="23" fill="white"/>
<g clip-path="url(#clip0_1_27506)">
<path d="M35.2228 15.8942C34.0189 15.0441 32.7315 14.1377 31.4719 13.2384C31.4441 13.2173 31.4163 13.1963 31.3815 13.1752C31.2423 13.0698 31.0823 12.9574 30.8874 12.8942L30.8735 12.8871C27.5054 12.0651 24.0816 11.222 20.7692 10.407C17.763 9.66934 14.7638 8.93163 11.7575 8.19393C11.681 8.17285 11.6044 8.15177 11.5209 8.13069C11.2495 8.05341 10.9364 7.9691 10.6024 8.01126C10.5049 8.02531 10.4214 8.06044 10.3449 8.10962L10.2614 8.17987C10.1292 8.30634 10.0596 8.46793 10.0248 8.55926L10.0039 8.61547V8.93866L10.0178 8.98784C11.9176 14.3626 13.8661 19.8145 15.745 25.0909C17.1924 29.1518 18.6955 33.3602 20.1638 37.4913C20.2543 37.7724 20.5118 37.9551 20.8319 37.9832H20.9015C21.2007 37.9832 21.4651 37.8356 21.5974 37.5967L27.1088 29.482C28.4518 27.5078 29.7949 25.5265 31.1379 23.5523C31.6877 22.7443 32.2374 21.9293 32.7872 21.1213C33.6918 19.7864 34.6243 18.4094 35.5499 17.0674L35.5986 16.9972V16.9129C35.6194 16.667 35.6264 16.1611 35.2228 15.8942ZM28.765 18.852C27.4706 19.5335 26.1484 20.2361 24.8193 20.9316C25.5917 20.0956 26.3711 19.2525 27.1435 18.4164C28.1108 17.3626 29.1198 16.2736 30.108 15.2056L30.1289 15.1846C30.2124 15.0721 30.3168 14.9667 30.4281 14.8544C30.5047 14.7771 30.5882 14.6998 30.6647 14.6085C31.1797 14.9667 31.7016 15.3321 32.2027 15.6904C32.5645 15.9504 32.9333 16.2103 33.3091 16.4703C31.7782 17.2571 30.2472 18.0651 28.765 18.852ZM25.4386 18.5148C24.4435 19.6038 23.4136 20.7209 22.3907 21.8239C20.4074 19.393 18.3824 16.9269 16.42 14.5452C15.5292 13.4633 14.6315 12.3743 13.7408 11.2923L13.7339 11.2853C13.532 11.0534 13.3372 10.8005 13.1423 10.5616C13.0171 10.4 12.8849 10.2454 12.7527 10.0839C13.5599 10.2946 14.3741 10.4913 15.1743 10.681C15.8772 10.8497 16.6079 11.0253 17.3246 11.208C21.3608 12.1986 25.4038 13.1892 29.44 14.1799C28.0969 15.6272 26.7469 17.0956 25.4386 18.5148ZM21.9383 32.208C22.0149 31.4703 22.0984 30.7115 22.168 29.9667C22.2306 29.3696 22.2933 28.7583 22.3559 28.1752C22.4533 27.2408 22.5577 26.2712 22.6412 25.3227L22.662 25.1541C22.7316 24.5499 22.8012 23.9246 22.843 23.2993C22.9195 23.2571 23.0031 23.215 23.0935 23.1799C23.1979 23.1307 23.3023 23.0886 23.4066 23.0253C25.0141 22.1752 26.6216 21.3251 28.2361 20.482C29.8436 19.6389 31.4929 18.7677 33.1281 17.9035C31.639 20.0815 30.1428 22.2806 28.6954 24.4234C27.4497 26.2571 26.1693 28.1471 24.8959 30.0089C24.3948 30.7537 23.8729 31.5124 23.3788 32.2431C22.8221 33.0581 22.2515 33.8942 21.6948 34.7302C21.7643 33.8872 21.8479 33.037 21.9383 32.208ZM12.2377 11.7419C12.1472 11.489 12.0498 11.2291 11.9663 10.9832C13.8452 13.2735 15.738 15.578 17.5821 17.8122C18.5355 18.9714 19.4888 20.1236 20.4422 21.2899C20.6301 21.5078 20.8179 21.7396 20.9989 21.9644C21.2355 22.2525 21.4721 22.5546 21.7296 22.8427C21.6461 23.5663 21.5765 24.297 21.4999 24.9996C21.4512 25.4913 21.4025 25.9832 21.3468 26.482V26.489C21.326 26.8052 21.2842 27.1213 21.2494 27.4305C21.2007 27.859 21.0894 28.8286 21.0894 28.8286L21.0824 28.8778C20.9571 30.297 20.804 31.7302 20.6579 33.1213C20.5953 33.6975 20.5396 34.2876 20.477 34.8777C20.4422 34.7724 20.4004 34.667 20.3656 34.5686C20.2612 34.2876 20.1569 33.9925 20.0594 33.7045L19.3148 31.6178C16.9558 24.9925 14.5967 18.3743 12.2377 11.7419Z" fill="#010725"/>
</g>
<defs>
<clipPath id="clip0_1_27506">
<rect width="26" height="30" fill="white" transform="translate(10.0039 8)"/>
</clipPath>
</defs>
</svg>
